<?xml version="1.0" standalone="no"?>
<!DOCTYPE svg PUBLIC "-//W3C//DTD SVG 20010904//EN"
 "http://www.w3.org/TR/2001/REC-SVG-20010904/DTD/svg10.dtd">
<svg version="1.0" xmlns="http://www.w3.org/2000/svg"
 width="540.000000pt" height="540.000000pt" viewBox="0 0 540.000000 540.000000"
 preserveAspectRatio="xMidYMid meet">
<metadata>
Created by potrace 1.11, written by Peter Selinger 2001-2013
</metadata>
<g transform="translate(0.000000,540.000000) scale(0.100000,-0.100000)"
fill="#000000" stroke="none">
<path d="M2588 5385 c-2 -2 -19 -5 -38 -8 -84 -12 -185 -45 -290 -95 -77 -37
-221 -130 -275 -177 -179 -157 -278 -261 -402 -426 -88 -118 -243 -349 -243
-364 0 -3 -17 -33 -39 -68 -40 -66 -189 -361 -230 -457 -128 -298 -235 -603
-297 -845 -14 -55 -28 -107 -30 -115 -13 -46 -73 -350 -79 -398 -4 -31 -8 -59
-10 -62 -10 -16 -20 -200 -20 -360 0 -184 6 -271 25 -366 10 -51 11 -56 30
-139 38 -169 151 -428 258 -590 269 -411 672 -705 1157 -844 210 -60 260 -65
580 -66 257 0 403 7 425 20 3 2 23 6 45 9 22 4 82 18 134 32 484 132 904 436
1173 849 55 84 177 318 182 347 1 7 4 18 8 23 6 11 67 204 72 232 2 10 11 52
20 93 8 41 19 104 23 140 15 125 7 551 -12 620 -2 8 -7 35 -10 60 -9 78 -39
235 -62 325 -8 33 -16 67 -18 75 -20 98 -87 327 -143 490 -238 691 -561 1257
-931 1629 -128 129 -169 164 -286 242 -209 139 -406 202 -621 198 -51 -1 -95
-3 -96 -4z"/>
</g>
</svg>
