<?xml version="1.0" encoding="iso-8859-1"?>
<!-- Generator: Adobe Illustrator 16.0.0, SVG Export Plug-In . SVG Version: 6.00 Build 0)  -->
<!DOCTYPE svg PUBLIC "-//W3C//DTD SVG 1.1//EN" "http://www.w3.org/Graphics/SVG/1.1/DTD/svg11.dtd">
<svg version="1.1" id="Capa_1" xmlns="http://www.w3.org/2000/svg" xmlns:xlink="http://www.w3.org/1999/xlink" x="0px" y="0px"
	 width="540.004px" height="540.004px" viewBox="0 0 540.004 540.004" style="enable-background:new 0 0 540.004 540.004;"
	 xml:space="preserve">
<g>
	<g>
		<path d="M270.005,0c-41.469,0-76.825,28.146-103.985,61.028c-1.989,2.405-3.917,4.841-5.814,7.289
			c-15.955,20.569-28.764,42.271-37.914,59.682c-18.458,35.123-33.733,74.75-44.229,112.896c-0.918,3.348-1.848,6.695-2.692,10.019
			c-4.707,18.501-8.219,36.512-10.343,53.348c-0.833,6.566-1.402,12.907-1.799,19.07c-0.343,5.354-0.582,10.6-0.582,15.587
			c0,41.751,12.509,80.136,34.144,111.941c8.764,12.889,19.045,24.676,30.587,35.184c36.91,33.599,86.849,53.96,142.627,53.96
			c116.273,0,207.351-88.33,207.351-201.085c0-58.269-23.971-143.024-59.645-210.919C392.601,80.19,340.005,0,270.005,0z
			 M302.735,85.257l22.711-12.387c2.705-1.475,4.516-5.361,4.045-8.678l-3.764-26.322c-0.471-3.317,1.078-4.112,3.465-1.774
			l26.816,26.218c1.328,1.304,3.221,2.069,5.111,2.32c5.617,6.554,10.912,13.366,15.844,20.232c0.41,1.065,0.895,2.062,1.494,2.852
			l5.568,7.35c2.84,4.253,5.527,8.476,8.078,12.632c-0.402,0.496-1.297,0.643-2.723,0.245l-17.711-4.927
			c-3.084-0.856-6.285,0.979-7.154,4.106l-9.412,33.93c-0.869,3.121-2.553,3.103-3.764-0.049l-15.111-39.26
			c-1.211-3.152-4.719-6.273-7.828-6.971l-24.943-5.587C300.354,88.495,300.03,86.732,302.735,85.257z M289.112,192.309
			l30.238,0.073c1.561,0.006,3.141-0.655,4.438-1.72c2.105-1.738,3.371-6.817,4.191-10.073l4.982-19.829
			c0.82-3.262,1.486-8.311,3.158-8.421c1.67-0.11,2.9,4.816,4.082,7.95l10.227,27.136c1.18,3.133,4.67,5.582,7.791,5.471
			l18.984-0.655c1.561-0.055,2.521,0.379,2.82,1.12c0.691,1.738-2.998,4.902-5.221,7.271l-11.236,11.971
			c-1.113,1.188-1.928,2.913-2.344,4.743c-0.666,2.919,0.809,7.993,1.756,11.212l4.395,14.884c0.949,3.219,2.951,7.852,1.604,8.892
			c-0.514,0.398-1.457,0.141-2.717-0.863l-19.963-15.961c-2.516-2.007-6.574-1.995-9.07,0.037l-19.744,16.047
			c-1.248,1.016-2.281,1.254-2.955,0.826c-1.529-0.985-0.361-5.912,0.098-9.253l2.025-14.731c0.459-3.342,1.17-8.586,0.025-11.298
			c-0.717-1.689-1.812-3.188-3.135-4.1l-25.318-17.442C285.593,193.765,285.985,192.296,289.112,192.309z M256.376,195.583
			l-25.318,17.442c-1.316,0.906-2.417,2.405-3.133,4.1c-1.145,2.705-0.435,7.95,0.024,11.298l2.025,14.73
			c0.459,3.342,1.628,8.269,0.098,9.253c-0.667,0.429-1.708,0.19-2.956-0.826l-19.743-16.046c-2.497-2.032-6.561-2.044-9.07-0.037
			l-19.963,15.961c-1.254,1.003-2.203,1.261-2.717,0.863c-1.34-1.041,0.655-5.667,1.604-8.893l4.394-14.884
			c0.949-3.219,2.423-8.292,1.756-11.212c-0.416-1.83-1.23-3.556-2.344-4.743l-11.236-11.971c-2.228-2.369-5.912-5.533-5.22-7.271
			c0.293-0.741,1.254-1.175,2.821-1.12l18.984,0.655c3.122,0.11,6.61-2.344,7.791-5.471l10.227-27.136
			c1.181-3.133,2.411-8.054,4.082-7.95c1.671,0.11,2.338,5.159,3.158,8.421l4.982,19.829c0.82,3.262,2.087,8.341,4.192,10.073
			c1.292,1.065,2.871,1.726,4.437,1.72l30.239-0.073C258.616,192.296,259.008,193.765,256.376,195.583z M179.319,64.131
			c1.169-0.417,2.289-0.979,3.146-1.818l26.818-26.218c2.387-2.338,3.941-1.536,3.464,1.774l-3.764,26.322
			c-0.472,3.317,1.334,7.203,4.045,8.678l22.711,12.387c2.705,1.475,2.381,3.238-0.728,3.935l-24.945,5.588
			c-3.109,0.698-6.616,3.819-7.828,6.971l-15.11,39.26c-1.211,3.152-2.901,3.176-3.764,0.049l-9.413-33.929
			c-0.869-3.121-4.07-4.963-7.154-4.106l-17.711,4.926c-0.594,0.166-1.028,0.172-1.451,0.172
			C156.504,93.648,167.14,78.262,179.319,64.131z M89.453,310.92l-13.568,6.781c1.983-22.785,6.946-48.397,14.266-74.762
			c2.283-0.398,4.565-1.799,5.783-3.843l25.784-43.054c1.72-2.876,3.219-2.491,3.341,0.856l1.824,50.153
			c0.123,3.348,2.638,6.689,5.625,7.455l44.67,11.481c2.986,0.765,3.054,2.479,0.159,3.825l-43.85,20.362
			c-2.895,1.346-5.214,5.152-5.184,8.513l0.508,56.549c0.031,3.359-1.358,3.893-3.097,1.199l-27.925-43.226
			C96.05,310.517,92.317,309.488,89.453,310.92z M164.307,489.704l-15.643-1.928c-21.953-16.665-39.964-37.84-52.699-62.234
			l-1.047-13.458c-0.257-3.299,1.139-3.745,3.109-1.004l19.449,27.002c1.977,2.741,5.679,3.641,8.274,2.02l25.123-15.741
			c2.595-1.628,3.702-0.587,2.466,2.319l-11.849,27.932c-1.236,2.907-0.3,7.186,2.081,9.554l22.118,21.959
			C168.083,488.486,167.458,490.09,164.307,489.704z M345.36,475.199c-21.168-4.749-44.719-16.358-67.699-31.358
			c-3.176-2.062-8.304-2.057-11.481,0.012c-22.98,15.062-46.537,26.732-67.711,31.524c-2.913,0.637-4.192-1.396-2.919-4.4
			c8.317-19.657,17.038-41.145,25.741-63.771c1.34-3.494,0.037-8.562-2.882-11.334c-21.255-20.232-40.918-42.564-59.731-64.443
			c-2.589-3.012-2.228-4.248,0.845-2.877c23.69,10.526,49.884,16.806,76.849,19.737c3.501,0.386,7.424-2.381,8.733-6.12
			c8.476-24.125,16.714-48.911,24.608-73.844c1.224-3.862,3.188-3.862,4.413,0c7.895,24.933,16.127,49.719,24.609,73.844
			c1.309,3.739,5.232,6.512,8.732,6.12c26.965-2.932,53.158-9.211,76.85-19.73c3.072-1.371,3.426-0.142,0.844,2.876
			c-18.812,21.892-38.477,44.229-59.73,64.474c-2.92,2.779-4.223,7.847-2.877,11.335c8.703,22.546,17.412,43.96,25.729,63.55
			C349.554,473.798,348.274,475.83,345.36,475.199z M442.247,428.981c-12.547,22.846-29.816,42.724-50.602,58.562l-17.473,2.154
			c-3.15,0.393-3.775-1.211-1.389-3.58l22.117-21.958c2.387-2.369,3.318-6.646,2.082-9.554l-11.85-27.932
			c-1.236-2.907-0.127-3.947,2.467-2.319l25.123,15.74c2.596,1.628,6.303,0.723,8.273-2.02l19.449-27.001
			c1.979-2.742,3.367-2.289,3.109,1.004L442.247,428.981z M449.872,242.982c7.398,26.659,12.375,52.528,14.309,75.508l-15.152-7.57
			c-2.865-1.432-6.592-0.403-8.336,2.289l-27.92,43.226c-1.738,2.693-3.127,2.16-3.096-1.199l0.508-56.549
			c0.029-3.36-2.295-7.167-5.184-8.513l-43.85-20.361c-2.896-1.347-2.822-3.054,0.158-3.825l44.67-11.481
			c2.986-0.765,5.502-4.107,5.625-7.455l1.822-50.153c0.123-3.348,1.617-3.733,3.342-0.856l25.783,43.054
			C444.046,241.611,447.124,243.123,449.872,242.982z"/>
	</g>
</g>
<g>
</g>
<g>
</g>
<g>
</g>
<g>
</g>
<g>
</g>
<g>
</g>
<g>
</g>
<g>
</g>
<g>
</g>
<g>
</g>
<g>
</g>
<g>
</g>
<g>
</g>
<g>
</g>
<g>
</g>
</svg>
