<?xml version="1.0" encoding="iso-8859-1"?>
<!-- Generator: Adobe Illustrator 16.0.0, SVG Export Plug-In . SVG Version: 6.00 Build 0)  -->
<!DOCTYPE svg PUBLIC "-//W3C//DTD SVG 1.1//EN" "http://www.w3.org/Graphics/SVG/1.1/DTD/svg11.dtd">
<svg version="1.1" id="Capa_1" xmlns="http://www.w3.org/2000/svg" xmlns:xlink="http://www.w3.org/1999/xlink" x="0px" y="0px"
	 width="540.016px" height="540.016px" viewBox="0 0 540.016 540.016" style="enable-background:new 0 0 540.016 540.016;"
	 xml:space="preserve">
<g>
	<g>
		<path d="M430.959,155.153c-4.205-9.266-8.617-18.354-13.238-27.154C397.617,89.743,359.904,30.777,309.77,8.739
			c-3.916-1.72-7.906-3.213-11.971-4.456c-6.377-1.952-12.932-3.28-19.664-3.88C275.449,0.165,272.744,0,270.008,0
			c-3.409,0-6.756,0.244-10.08,0.611c-5.496,0.606-10.875,1.665-16.132,3.177c-6.885,1.982-13.55,4.712-20.006,8.023
			c-46.922,24.051-82.265,79.59-101.494,116.188c-0.544,1.041-1.065,2.124-1.609,3.171c-2.057,3.983-4.076,8.011-6.053,12.099
			c-21.206,43.899-37.46,93.11-45.784,137.089c-2.13,11.26-3.733,22.16-4.774,32.557c-0.912,9.096-1.426,17.834-1.426,26.004
			c0,5.484,0.282,10.895,0.704,16.256c0.888,11.254,2.668,22.227,5.318,32.84c22.051,88.281,102.59,152.002,201.336,152.002
			c30.392,0,59.041-6.084,84.81-17.014c8.525-3.617,16.746-7.742,24.598-12.387c10.488-6.211,20.336-13.305,29.443-21.182
			c6.309-5.459,12.246-11.314,17.809-17.496c3.709-4.119,7.264-8.367,10.611-12.785c2.51-3.311,4.891-6.721,7.191-10.189
			c2.357-3.551,4.604-7.174,6.727-10.881c3.115-5.436,5.973-11.035,8.568-16.781c4.033-8.93,7.416-18.207,10.104-27.805
			c1.732-6.174,3.17-12.473,4.309-18.885c2.057-11.561,3.188-23.471,3.188-35.693c0-43.695-13.48-102.295-35.27-157.51
			C438.59,172.547,434.869,163.771,430.959,155.153z M420.566,161.91c3.439,7.656,6.744,15.416,9.859,23.263
			c-7.264,1.591-14.785,2.393-21.732,2.674c-0.385-2.148-0.912-4.314-1.641-6.487c-1.027-3.078-2.361-5.948-3.916-8.642
			C408.645,169.364,414.654,165.668,420.566,161.91z M409.801,417.096c1.445-2.24,2.969-3.801,4.48-4.865
			c3.354-2.357,6.652-2.301,8.91-1.861c4.578,0.889,6.047,5.141,5.881,10.344c-0.098,3.035-0.557,6.34-1.143,9.693
			c-4.83,2.656-10.062,6.561-15.014,11.256c-1.285-3.098-2.705-6.182-4.203-8.906C406.949,429.568,405.01,424.537,409.801,417.096z
			 M407.867,446.852c-1.414,1.566-2.785,3.188-4.082,4.859c-1.297,1.67-2.453,3.299-3.494,4.895
			c-7.197,1.463-15.533,2.664-22.35,2.254c-15.43-0.932-7.854-9.182-7.854-9.182s5.338-8.383,20.766-7.453
			C397.672,442.635,403.479,444.686,407.867,446.852z M414.367,301.686c0,0-4.064-1.402-13.195-27.748
			c-5.482-15.595-9.248-34.872-11.371-48.098c1.041-0.202,2.074-0.465,3.084-0.845c1.018-0.379,1.971-0.851,2.902-1.383
			c6.506,11.334,19.375,27.405,24.352,42.546C428.406,291.734,414.367,301.686,414.367,301.686z M379.58,127.596
			c0.148-9.419,1.193-22.313,8.686-26.041c6.188,9.694,11.627,19.125,16.236,27.669c0.086,6.561-1.053,12.833-2.822,18.519
			c-1.604,5.398-3.58,10.594-5.631,15.655c-5.023-5.049-11.01-8.642-17.16-10.178C379.227,144.627,379.502,135.845,379.58,127.596z
			 M398.527,184.077c4.609,13.537,0.375,27.142-9.326,30.496c-9.621,3.427-21.664-5.233-27.031-19.45
			c-5.436-14.277-1.531-28.176,8.85-30.918C381.479,161.531,393.854,170.479,398.527,184.077z M377.305,287.32
			c-1.604,1.807-3.201,1.953-4.744,1.047c-3.434-2.025-6.609-9.266-8.758-15.092c-4.387-11.854-5.305-24.247-4.393-35.055
			c0.801-8.458,2.318-16.635,4.143-24.156c4.486,5.172,9.65,8.881,14.902,10.76c0.502,10.306,1.23,21.138,2.197,31.261
			C381.699,266.544,382.689,281.379,377.305,287.32z M359.918,107.161c5.697,15.435,9.725,31.75,12.502,45.238
			c-1.865-0.006-3.715,0.172-5.514,0.612c-1.799,0.435-3.465,1.107-5.006,1.946c-7.074-11.934-15.227-26.824-21.047-44.443
			c-12.062-36.157-8.416-35.11-8.416-35.11S346.711,71.965,359.918,107.161z M305.432,222.346
			c-4.475-2.632-10.24-6.806-12.639-12.259c-1.09-2.467,0.697-12.534,1.48-15.416c2.705-9.511,13.666-9.131,21.52-8.226
			c11.645,1.31,24.455,1.793,35.262,1.922c0.613,3.023,1.477,6.089,2.67,9.168c0.826,2.142,1.793,4.18,2.82,6.138
			c-7.051,5.116-15.416,10.337-24.18,13.574C325.15,219.977,314.422,227.608,305.432,222.346z M327.041,321.104
			c-0.826,10.318-6.451,19.664-13.494,27.246c-4.107,4.426-8.611,8.549-13.189,12.504c-3.979-5.424-9.682-9.738-16.426-12.289
			c4.082-7.234,8.133-14.695,11.684-21.775c4.16-8.299,10.801-19.75,21.242-21.684c3.145-0.582,5.373,0.031,6.939,1.377
			C327.262,309.463,327.451,316.023,327.041,321.104z M350.137,176.427c-5.305-3.635-10.721-7.632-15.984-12.038
			c-8.789-7.356-17.484-17.16-23.115-29.112c-2.803-5.912-5.875-13.673-4.621-17.755c0.576-1.836,2.045-2.913,4.816-2.729
			c9.211,0.606,19.75,12.736,26.744,21.519c5.973,7.527,12.43,15.33,18.709,22.772C352.842,163.373,350.59,169.438,350.137,176.427z
			 M323.068,31.817c5.637,4.603,12.521,13.415,15.49,21.53c0.924,2.399,1.188,3.617,1.084,3.978
			c-0.221,0.79-2.332-2.479-4.346-5.036c-4.004-5.307-9.756-12.069-16.133-17.583c-7.031-6.206-15.252-11.212-22.957-14.517
			c0.332-0.312,0.545-0.686,0.588-1.132c0.062-0.631-0.219-1.377-0.746-2.179C305.412,19.7,315.418,25.092,323.068,31.817z
			 M292.891,21.358c4.01,2.467,7.809,5.373,11.016,8.385c4.285,4.026,7.168,8.323,7.02,10.605c-0.078,1.139-0.586,2.246-2.918,1.407
			c-1.059-0.373-2.484-1.132-4.48-2.355c-6.627-4.015-10.686-7.797-13.195-10.49c-2.381-2.503-5.275-5.116-8.262-7.46
			C286.582,21.591,290.309,21.695,292.891,21.358z M250.351,14.712c6.389-1.572,12.938-2.473,19.657-2.473
			c5.734,0,11.347,0.637,16.841,1.8c0.906,0.826,1.391,1.634,1.336,2.313c-0.184,2.821-8.594,2.662-19.034,2.613
			c-10.44-0.135-18.923-0.166-19.18-3.036C249.935,15.557,250.082,15.141,250.351,14.712z M269.617,276.887
			c0,0,11.762-2.301,11.762,29.332c0,13.979-2.301,28.477-4.865,40.355c-2.234-0.379-4.535-0.6-6.897-0.6
			c-2.356,0-4.657,0.221-6.897,0.6c-2.564-11.873-4.865-26.371-4.865-40.348C257.854,274.592,269.617,276.887,269.617,276.887z
			 M260.834,30.991c-0.159-3.231,2.631-7.283,5.085-9.89c1.071,0,2.161,0.006,3.262,0.019c1.108,0.012,2.185,0.018,3.261,0.042
			c2.51,2.65,5.375,6.72,5.289,9.927c-0.141,5.312-8.379,4.425-8.391,4.56C269.317,35.508,261.098,36.34,260.834,30.991z
			 M244.904,20.819c2.46,0.453,6.077,0.453,10.447,0.398c-3.023,2.393-5.937,5.092-8.323,7.687
			c-2.454,2.711-6.402,6.549-12.956,10.581c-1.965,1.236-3.391,1.989-4.449,2.356c-2.326,0.826-2.901-0.318-3.023-1.493
			c-0.239-2.344,2.54-6.683,6.75-10.722C236.673,26.432,240.681,23.365,244.904,20.819z M187.817,196.55
			c1.487,7.319,1.701,15.643-1.004,23.55c-1.334,3.892-3.452,8.727-6.285,10.073c-1.279,0.605-2.705,0.502-4.26-0.716
			c-5.146-4.015-5.189-14.058-4.853-21.157c0.331-6.707,0.496-13.893,0.569-20.783c4.155-0.998,8.164-3.317,11.554-6.659
			C185.197,185.809,186.721,191.103,187.817,196.55z M187.339,142.442c4.198-4.768,8.427-9.736,12.271-14.535
			c4.474-5.648,11.077-13.359,17.062-13.2c1.799,0.049,2.803,0.875,3.262,2.166c1.022,2.858-0.625,7.975-2.197,11.843
			c-3.201,7.833-8.721,14.063-14.547,18.659c-3.415,2.662-6.971,5.007-10.52,7.197C192.04,149.762,190.209,145.521,187.339,142.442z
			 M188.839,173.795c0.771-1.407,1.462-2.882,2.038-4.449c0.814-2.209,1.347-4.431,1.671-6.615
			c7.601,0.294,16.316,0.429,24.199,0.049c5.661-0.281,13.629-0.062,16.622,6.39c0.906,1.952,0.942,3.727,0.422,5.312
			c-1.157,3.513-5.043,6.084-8.164,7.687c-6.358,3.226-12.987,2.767-18.794,0.717C200.387,180.625,194.163,177.223,188.839,173.795z
			 M214.537,306.488c1.561-1.346,3.794-1.957,6.94-1.377c10.441,1.934,17.081,13.385,21.243,21.684
			c3.604,7.186,7.717,14.756,11.86,22.088c-6.64,2.674-12.222,7.049-16.071,12.521c-4.761-4.088-9.449-8.445-13.715-13.043
			c-7.038-7.588-12.668-16.928-13.495-27.246C210.889,316.023,211.073,309.463,214.537,306.488z M197.59,53.531
			c2.265-6.53,7.13-13.428,11.873-18.293c10.043-7.649,20.747-13.868,32.039-17.9c-0.135,0.392-0.208,0.765-0.171,1.102
			c0.049,0.416,0.257,0.771,0.551,1.083c-8.213,3.348-17.185,8.709-24.737,15.496c-6.322,5.544-12.007,12.313-16.046,17.582
			c-2.038,2.546-4.18,5.777-4.48,4.958C196.482,57.179,196.703,55.948,197.59,53.531z M185.675,106.487
			c8.966-23.77,14.302-20.397,14.302-20.397s6.64-0.099-2.118,23.953c-3.904,10.582-9.186,21.151-13.904,29.651
			c-1.077-0.66-2.234-1.205-3.482-1.604c-1.249-0.392-2.527-0.611-3.819-0.697C178.722,128.128,181.685,116.946,185.675,106.487z
			 M177.566,145.68c7.38,2.375,10.489,12.118,6.897,21.714c-3.611,9.572-12.693,15.172-20.251,12.553
			c-7.54-2.589-10.557-12.216-6.769-21.543C161.207,149.059,170.203,143.336,177.566,145.68z M157.284,110.563
			c1.315-3.77,3.372-8.525,6.028-10.208c1.2-0.766,2.521-0.894,3.96-0.019c4.792,2.932,4.877,12.387,4.621,19.162
			c-0.214,5.881-0.257,12.147-0.208,18.262c-4.291,0.881-8.525,3.183-12.179,6.561c-1.31-3.788-2.484-7.748-3.354-11.793
			C154.744,125.876,154.616,118.207,157.284,110.563z M132.608,134.737c0.74,0.532,1.457,1.071,2.099,1.598
			c6.053,4.938,13.244,10.037,19.498,14.284c-1.126,1.726-2.13,3.574-2.944,5.557c-0.569,1.383-1.003,2.767-1.365,4.144
			c-6.726-0.483-14.296-1.549-21.102-3.746c-1.995-0.643-3.874-1.566-5.649-2.644C126.194,147.418,129.334,140.998,132.608,134.737z
			 M113.3,283.117c0.789,2.68-0.765,7.111-2.038,10.551c-2.62,6.934-6.793,12.826-11.218,17.932
			c-2.57,2.961-5.226,5.832-7.815,8.727c-1.64-4.418-4.027-8.244-7.087-10.887c2.962-5.643,6.297-11.164,9.572-16.17
			c3.776-5.949,10.22-13.225,15.71-12.447C112.069,281.043,112.932,281.912,113.3,283.117z M84.242,266.226
			c10.777-21.983,15.943-16.824,15.429-17.044c0.544,0.159,4.798,1.083-6.279,25.637c-4.522,11.016-8.788,22.559-11.708,32.375
			c-1.071-0.508-2.185-0.895-3.372-1.096c-0.392-0.068-0.783,0.006-1.175-0.02C78.715,293.393,81.102,280.014,84.242,266.226z
			 M74.896,338.926c0-7.564,0.453-15.625,1.261-24.016c0.306,0.006,0.606-0.074,0.906-0.031c7.001,0.955,11.598,9.848,11.744,19.896
			c0.086,10.055-4.278,19.059-11.261,20.184c-0.648,0.104-1.291,0.043-1.94-0.023C75.172,349.66,74.896,344.328,74.896,338.926z
			 M99.67,416.803c0.3-0.143-4.168,4.111-12.65-11.115c-4.847-12.785-8.305-26.26-10.257-40.27
			c-0.024-0.648-0.061-1.334-0.067-1.951c0.741-0.008,1.481-0.057,2.222-0.197c0.74-0.141,1.444-0.367,2.136-0.629
			c3.415,9.4,9.37,22.459,14.529,33.666C104.756,415.191,99.995,416.703,99.67,416.803z M116.25,387.047
			c-0.374,1.188-1.255,2.02-2.913,2.184c-5.563,0.631-12.044-6.719-15.82-12.686c-3.647-5.57-7.332-11.799-10.526-18.098
			c2.638-2.883,4.633-6.719,5.961-11.041c3.262,3.709,6.689,7.51,10,11.322c4.437,5.129,8.635,11.004,11.267,17.883
			C115.491,380.027,117.057,384.422,116.25,387.047z M127.333,334.672c-4.278,3.781-9.712,5.623-15.092,5.949
			c-5.961,0.373-12.172-0.264-17.681-1.463c0.141-1.518,0.22-3.066,0.202-4.658c-0.024-2.246-0.232-4.412-0.563-6.506
			c6.536-1.83,13.996-3.775,20.698-5.539c4.829-1.34,11.689-2.141,15.643,1.824c1.206,1.182,1.64,2.344,1.579,3.488
			C131.99,330.271,129.438,332.787,127.333,334.672z M120.252,208.612c-1.952-0.11-3.042-0.925-3.543-2.154
			c-1.108-2.712,0.667-7.448,2.356-11.034c3.409-7.296,9.205-13.165,15.251-17.589c4.755-3.525,9.768-6.689,14.609-9.505
			c0.134,4.479,1.426,8.604,3.69,11.928c-4.81,5.294-9.78,10.857-14.278,16.12C133.691,201.751,126.727,208.973,120.252,208.612z
			 M142.07,234.836c0,0-7.185-1.242,0.239-19.076c4.339-10.526,11.566-21.989,16.762-29.712c0.741,0.385,1.506,0.74,2.313,1.021
			c0.814,0.282,1.634,0.49,2.466,0.649c-1.487,9.069-4.143,22.271-8.384,32.932C148.202,238.704,142.07,234.836,142.07,234.836z
			 M165.944,379.818c-4.217-3.09-9.174-7.594-9.18-12.062c0-2.02,1.01-4.027,3.556-5.893c8.452-6.207,21.757-3.342,30.961-0.803
			c13.715,3.783,29.321,7.266,42.644,10.006c-0.691,2.527-1.102,5.16-1.102,7.877c0,1.896,0.22,3.746,0.563,5.557
			c-11.383,2.082-24.566,3.789-37.32,3.789C185.491,388.283,174.5,386.098,165.944,379.818z M238.961,432.756
			c-3.751,8.477-9.822,20.215-20.159,22.621c-3.115,0.721-5.374,0.207-6.995-1.066c-3.604-2.814-4.113-9.357-3.954-14.455
			c0.318-10.342,5.483-19.932,12.148-27.828c5.263-6.234,11.23-12.111,17.209-17.465c3.219,5.348,8.054,9.785,13.904,12.846
			C246.869,415.756,242.603,424.525,238.961,432.756z M244.519,379.207c0-12.742,11.236-23.066,25.092-23.066
			c13.862,0,25.093,10.33,25.093,23.066s-11.236,23.066-25.093,23.066C255.755,402.273,244.519,391.943,244.519,379.207z
			 M269.617,477.066c0,0-11.763,1.787-11.763-22.799c0-14.455,4.051-31.217,7.393-42.607c1.432,0.154,2.882,0.252,4.363,0.252
			c1.481,0,2.931-0.098,4.364-0.252c3.348,11.391,7.393,28.158,7.393,42.607C281.373,478.854,269.617,477.066,269.617,477.066z
			 M325.896,454.311c-1.629,1.273-3.887,1.787-6.996,1.066c-10.336-2.406-16.406-14.145-20.158-22.621
			c-3.557-8.029-7.699-16.561-11.83-24.719c6.064-2.9,11.096-7.287,14.535-12.605c5.654,5.121,11.273,10.697,16.254,16.596
			c6.664,7.896,11.824,17.48,12.148,27.828C330.008,444.953,329.5,451.496,325.896,454.311z M305.768,384.984
			c0.404-1.959,0.643-3.973,0.643-6.041c0-2.92-0.465-5.734-1.262-8.434c12.713-2.65,27.168-5.918,39.982-9.455
			c9.205-2.539,22.51-5.404,30.961,0.803c2.547,1.865,3.557,3.879,3.557,5.893c-0.006,4.467-4.971,8.967-9.18,12.062
			c-8.557,6.279-19.549,8.465-30.117,8.465C328.596,388.283,316.49,386.838,305.768,384.984z M354.281,489.496
			c0.201-1.145,1.125-2.742,3.139-4.945c6.678-7.326,15.906-11.684,22.24-14.383c5.484-2.338,11.438-5.023,17.283-7.736
			c-2.344,4.775-3.268,8.85-2.717,11.732c-4.609,3.25-9.309,6.434-13.893,9.314c-7.564,4.756-15.215,8.459-20.699,8.74
			C356.93,492.354,353.834,492.029,354.281,489.496z M402.592,478.59c-7.484,6.641-15.525,12.705-24.057,18.139
			c6.18-6.492,12.361-13.09,17.889-19.051c0.85,0.562,1.908,0.93,3.236,1.01c0.924,0.055,1.947-0.043,3.018-0.232
			C402.652,478.504,402.623,478.547,402.592,478.59z M412.85,468.736c-2.492,1.145-4.793,1.799-6.635,1.689
			c-6.211-0.373-5.08-8.623,2.527-18.422c7.613-9.799,18.82-17.441,25.031-17.068c1.902,0.115,3.035,1.041,3.586,2.447
			C430.34,448.711,422.096,459.189,412.85,468.736z M458.088,390.119c-3.531,12.57-8.328,24.572-14.277,35.887
			c-0.379,0.422-0.771,0.869-1.145,1.285c-0.734-0.342-1.586-0.568-2.59-0.629c-1.426-0.086-3.053,0.158-4.803,0.643
			c5.686-9.07,12.031-19.389,17.344-28.551C454.098,396.189,455.988,393.172,458.088,390.119z M446.051,260.02
			c-0.68,1.745-1.99,2.913-4.223,3.085c-7.424,0.563-16.359-15.82-21.689-23.599c-5.141-7.448-10.955-15.361-16.738-22.975
			c3.207-4.541,5.213-10.361,5.801-16.75c5.82,4.082,11.689,8.573,17.148,13.494c7.18,6.475,13.703,14.914,17.02,25.251
			C444.992,243.6,447.58,256.171,446.051,260.02z"/>
	</g>
</g>
<g>
</g>
<g>
</g>
<g>
</g>
<g>
</g>
<g>
</g>
<g>
</g>
<g>
</g>
<g>
</g>
<g>
</g>
<g>
</g>
<g>
</g>
<g>
</g>
<g>
</g>
<g>
</g>
<g>
</g>
</svg>
