<?xml version="1.0" encoding="iso-8859-1"?>
<!-- Generator: Adobe Illustrator 16.0.0, SVG Export Plug-In . SVG Version: 6.00 Build 0)  -->
<!DOCTYPE svg PUBLIC "-//W3C//DTD SVG 1.1//EN" "http://www.w3.org/Graphics/SVG/1.1/DTD/svg11.dtd">
<svg version="1.1" id="Capa_1" xmlns="http://www.w3.org/2000/svg" xmlns:xlink="http://www.w3.org/1999/xlink" x="0px" y="0px"
	 width="546.125px" height="546.125px" viewBox="0 0 546.125 546.125" style="enable-background:new 0 0 546.125 546.125;"
	 xml:space="preserve">
<g>
	<g>
		<path d="M273.057,0c-70.778,0-123.96,81.102-149.358,129.444c-36.083,68.673-60.325,154.402-60.325,213.332
			c0,114.027,92.106,203.35,209.689,203.35c117.584,0,209.689-89.322,209.689-203.35c0-58.93-24.241-144.665-60.324-213.332
			C397.018,81.102,343.834,0,273.057,0z M401.484,241.605c-3.586,48.19-53.537,14.578-52.038-3.635
			C352.133,205.234,405.077,193.417,401.484,241.605z M356.038,437.984c-17.926-0.846-40.099-39.365-4.211-39.945
			C387.709,397.463,384.771,439.342,356.038,437.984z M370.982,455.268c0,8.537-7.031,15.459-15.703,15.459
			c-8.673,0-15.704-6.922-15.704-15.459c0-8.539,7.031-15.461,15.704-15.461C363.951,439.807,370.982,446.729,370.982,455.268z
			 M333.296,264.335c37.687-20,61.91,39.101,18.844,50.007C309.066,325.254,318.706,272.077,333.296,264.335z M300.994,242.97
			c0-12.301,9.64-22.277,21.536-22.277c11.892,0,21.537,9.976,21.537,22.277c0,12.301-9.646,22.276-21.537,22.276
			C310.634,265.247,300.994,255.271,300.994,242.97z M374.569,115.227c-32.302,10-25.974-31.347-14.357-32.736
			C375.469,80.68,406.87,105.227,374.569,115.227z M382.531,87.436c-3.348-1.658-6.212-5.098-7.742-10.477
			C377.458,80.423,380.04,83.923,382.531,87.436z M353.614,52.571c5.373,5.422,10.489,11.169,15.355,17.087
			c-1.041,7.252-7.143,12.84-14.591,12.84c-8.176,0-14.804-6.714-14.804-15C339.575,59.474,345.805,52.981,353.614,52.571z
			 M321.631,32.491c1.708-1.083,3.269-1.928,4.737-2.625c5.765,3.812,11.34,8.097,16.701,12.772
			c-0.312,7.332-2.767,15.178-5.287,18.03C322.524,77.95,292.922,50.673,321.631,32.491z M338.682,79.768
			c13.458,10.906,13.458,43.642-19.737,23.635C285.737,83.403,320.731,65.221,338.682,79.768z M339.575,156.139
			c52.938,18.183,9.871,74.554-20.637,60.007C288.43,201.599,278.559,134.322,339.575,156.139z M268.246,79.768
			c5.698,0,10.318,4.884,10.318,10.906c0,6.028-4.614,10.912-10.318,10.912c-5.697,0-10.318-4.883-10.318-10.912
			C257.922,84.652,262.542,79.768,268.246,79.768z M244.464,207.058c22.43-53.648,67.289,9.033,53.838,30
			C286.637,255.241,222.034,260.7,244.464,207.058z M205.223,40.796c4.926,1.5,9.847,5.392,14.125,12.607
			c18.843,31.824-26.022,44.548-38.587,21.818c-1.254-2.276-1.995-4.676-2.338-7.105C186.648,58.25,195.608,48.917,205.223,40.796z
			 M175.559,71.592c3.152,2.833,5.202,7.044,5.202,11.817c0,8.538-6.426,15.459-14.357,15.459c-3.219,0-6.157-1.182-8.55-3.109
			C163.264,87.657,169.176,79.493,175.559,71.592z M134.53,135.136c5.472-10.41,12.283-22.417,20.288-34.768
			c1.236,0.294,2.417,0.692,3.513,1.218c12.809,6.182,18.844,62.736-21.536,40c-1.512-0.851-2.87-1.708-4.149-2.57
			c0.006-0.012,0.012-0.024,0.019-0.037c-0.025-0.012-0.037-0.031-0.055-0.043C133.251,137.675,133.875,136.384,134.53,135.136z
			 M175.375,219.329c0,10.293-8.238,18.641-18.391,18.641c-10.153,0-18.391-8.348-18.391-18.641
			c0-10.294,8.237-18.642,18.391-18.642C167.138,200.687,175.375,209.035,175.375,219.329z M178.068,314.342
			c31.401,50.918-26.334,62.98-43.966,42.729C120.644,341.619,146.667,263.423,178.068,314.342z M139.488,377.982
			c0,11.549-8.837,20.912-19.743,20.912c-10.9,0-19.737-9.363-19.737-20.912c0-11.547,8.837-20.912,19.737-20.912
			C130.644,357.07,139.488,366.436,139.488,377.982z M125.614,133.226c0.263,0.275,0.612,0.557,0.899,0.838
			c-16.573,32.271-31.23,67.241-41.31,101.017C95.136,201.011,108.863,165.729,125.614,133.226z M90.173,293.43
			c50.245-25.459,45.392,52.73,22.062,59.1c-8.862,2.418-28.899-5.445-35.019-17.068c0-0.115,0-0.232,0-0.348
			c0-0.129-0.741-0.258-0.845-0.387c0.386-10.666,1.23-22.092,3.029-34.082c0.062-0.055-0.018-0.109,0.043-0.164
			c0.006-0.043-0.055-0.092-0.043-0.135C82.296,297.971,85.797,295.645,90.173,293.43z M68.539,317.934
			c1.72-18.445,5.331-38.818,10.532-60.037c-4.327,18.225-7.068,35.803-7.754,52.094c-1.799,3.641-2.375,7.312-1.977,10.893
			c-0.606,1.25-1.01,2.486-1.285,3.715C68.208,322.377,68.324,320.205,68.539,317.934z M67.969,341.783
			c0-3.482-0.208-7.094-0.03-10.783c0.226,3.697,0.832,7.301,0.832,10.783c0,7.02,0.906,13.93,1.604,20.717
			c-0.343,0.037-0.686,0.072-0.71,0.104C68.967,355.785,67.969,348.84,67.969,341.783z M80.583,410.168
			c0.441,0.098,0.796,0.098,1.175,0.123C80.95,410.363,81.415,410.352,80.583,410.168z M87.063,408.137
			c-5.973-16.371-8.433-33.844-9.669-52.088c-0.012-0.178-0.043-0.348-0.055-0.525c10.594-4.406,23.122,1.816,22.668,25.189
			C99.854,388.59,94.42,402.689,87.063,408.137z M117.951,447.996c-7.46-2.467-12.852-5.809-16.591-9.566
			c-2.301-3.922-4.504-7.906-6.518-12.006c-2.668-14.689,11.218-29.027,25.802-22.98
			C160.125,419.807,159.225,461.631,117.951,447.996z M188.833,412.537c-23.323,40-55.563-14.199-45.759-29.096
			C159.225,358.889,212.169,372.531,188.833,412.537z M179.861,92.498c23.33-20.006,74.474,14.547,32.301,44.547
			C169.996,167.051,164.335,105.814,179.861,92.498z M231.006,516.18c-6.94,0-12.559-6.311-12.559-14.096
			c0-7.783,5.618-14.094,12.559-14.094c6.94,0,12.564,6.311,12.564,14.094C243.57,509.869,237.946,516.18,231.006,516.18z
			 M261.514,398.895c-8.427,0-15.251-7.324-15.251-16.371c0-9.033,6.824-16.363,15.251-16.363s15.251,7.324,15.251,16.363
			C276.766,391.57,269.941,398.895,261.514,398.895z M262.414,297.977c-39.48-37.277,24.805-50.465,39.48-38.189
			C322.524,277.064,301.888,335.254,262.414,297.977z M295.608,451.631c-3.586-43.641,47.559-23.641,41.28,0
			C333.541,464.201,299.195,495.273,295.608,451.631z M324.324,501.631c-28.716-11.816,9.314-41.236,23.329-30.912
			C367.391,485.273,353.033,513.449,324.324,501.631z M385.334,494.361c-26.916,16.365-29.217-19.75-16.15-26.365
			C390.72,457.084,412.256,477.996,385.334,494.361z M370.083,449.807c-3.586-14.547,34.095-31.822,34.095-5.451
			C404.178,470.719,373.73,464.6,370.083,449.807z M420.328,370.713c-23.329-26.365,5.386-37.277,21.536-20
			C451.907,361.453,443.658,397.078,420.328,370.713z M465.892,382.965c-15.545,7.166-16.523-23.213-4.676-28.617
			c3.029-1.383,7.681-1.805,7.681-1.584c0,0.012,0,0.023,0,0.035c0,0.031,0.753,0.111,0.949,0.154
			C469.312,363.215,467.967,373.234,465.892,382.965z M476.798,322.988c0.189,2.521,0.397,5.057,0.514,7.498
			c0.189,3.873,0.294,7.65,0.294,11.297c0,2.533-1.249,5.037-1.341,7.541c0.092-2.504-0.385-5.008-0.385-7.541
			c0-3.646-0.863-7.43-0.863-11.297c0-2.441,0.826-4.977,0.637-7.498c-0.307-0.035-0.551-0.018-0.826-0.023
			C475.481,322.902,476.143,322.902,476.798,322.988z M475.017,352.646c0,1.469,0.924,2.906,0.814,4.363
			c-0.466-0.674-0.447-1.266-1.047-1.805C474.625,354.359,475.017,353.51,475.017,352.646z M470.506,342.781
			c0,0.373-0.403,0.746-0.746,1.119c-2.559-2.748-4.462-5.812-4.565-7.734c-0.282-5.111,1.713-8.973,4.56-11.188
			C470.206,331.117,470.506,337.107,470.506,342.781z M462.501,297.064c1.585,0.496,2.962,1.07,4.211,1.689
			c1.163,7.49,2.105,14.805,2.735,21.83c-3.176,2.596-7.338,3.947-11.432,2.84C447.434,320.572,439.172,289.795,462.501,297.064z
			 M452.177,325.254c6.695,0,12.117,6.512,12.117,14.547s-5.422,14.547-12.117,14.547c-6.689,0-12.111-6.518-12.111-14.547
			C440.065,331.766,445.487,325.254,452.177,325.254z M440.965,328.889c-7.57,15.344-46.659,14.547-26.916-17.271
			C433.786,279.787,448.144,314.342,440.965,328.889z M429.043,171.898c3.623,8.415,7.038,16.94,10.264,25.526
			c-2.387,5.692-7.148,9.627-12.699,9.627c-7.932,0-14.357-7.938-14.357-17.729s6.426-17.73,14.357-17.73
			C427.446,171.599,428.248,171.733,429.043,171.898z"/>
	</g>
</g>
<g>
</g>
<g>
</g>
<g>
</g>
<g>
</g>
<g>
</g>
<g>
</g>
<g>
</g>
<g>
</g>
<g>
</g>
<g>
</g>
<g>
</g>
<g>
</g>
<g>
</g>
<g>
</g>
<g>
</g>
</svg>
