<?xml version="1.0" encoding="utf-8"?>
<!-- Generator: Adobe Illustrator 14.0.0, SVG Export Plug-In . SVG Version: 6.00 Build 43363)  -->
<!DOCTYPE svg PUBLIC "-//W3C//DTD SVG 1.1//EN" "http://www.w3.org/Graphics/SVG/1.1/DTD/svg11.dtd">
<svg version="1.1" id="Capa_1" xmlns="http://www.w3.org/2000/svg" xmlns:xlink="http://www.w3.org/1999/xlink" x="0px" y="0px"
	 width="540.01px" height="540.01px" viewBox="0 0 540.01 540.01" enable-background="new 0 0 540.01 540.01" xml:space="preserve">
<g>
	<g>
		<path d="M456.151,221.189c-4.908-15.612-10.582-31.273-16.867-46.635c-6.328-15.459-13.268-30.587-20.766-44.976
			c-0.271-0.52-0.525-1.059-0.801-1.579c-8.422-16.034-19.951-35.704-34.174-54.774c-7.267-9.743-15.24-19.314-23.869-28.177
			C334.835,19.535,304.546,0,270.011,0c-34.651,0-65.031,19.663-89.934,45.306c-8.611,8.874-16.562,18.458-23.813,28.195
			c-14.125,18.984-25.588,38.544-33.966,54.493c-0.104,0.202-0.202,0.41-0.313,0.612c-7.453,14.229-14.356,29.211-20.667,44.511
			c-6.383,15.471-12.13,31.267-17.11,47.014c-3.703,11.702-6.978,23.348-9.792,34.805c-7.509,30.515-11.764,59.59-11.764,83.991
			c0,112.761,91.078,201.084,207.353,201.084c116.272,0,207.352-88.329,207.352-201.084c0-23.52-3.959-51.384-10.967-80.687
			C463.489,246.066,460.073,233.661,456.151,221.189z"/>
	</g>
</g>
</svg>
